<svg width="254" height="80" viewBox="0 0 254 80" fill="none" xmlns="http://www.w3.org/2000/svg">
<path d="M30.3052 3.88474L26.5891 11.5578C23.1146 9.59182 18.1934 7.81672 15.3457 7.81672C13.6564 7.81672 12.5455 8.39235 12.5455 9.64004C12.5455 14.5786 30.2081 11.6542 30.2081 23.7867C30.2081 30.9314 23.8394 34.3359 16.2616 34.3359C10.5196 34.3359 4.24684 32.3217 0 29.0136L3.76364 21.437C7.23815 24.3623 12.8841 26.5684 16.3586 26.5684C18.4825 26.5684 19.8331 25.8481 19.8331 24.3141C19.8331 19.2309 2.17145 22.4436 2.17145 10.5984C2.17145 4.12385 7.72036 0.000976562 16.1655 0.000976562C21.3293 0.000976562 26.6376 1.535 30.3052 3.88474Z" fill="#5C5C5C"/>
<path d="M44.3991 17.1202C44.3991 22.2035 48.2598 25.9918 52.6997 25.9918C57.1386 25.9918 60.7112 22.2035 60.7112 17.1202C60.7112 12.037 57.1386 8.34413 52.6997 8.34413C48.2122 8.34413 44.3991 12.037 44.3991 17.1202ZM70.9891 17.072C70.9891 26.9512 63.1717 34.3359 52.5541 34.3359C41.9385 34.3359 34.1201 26.9994 34.1201 17.072C34.1201 7.19287 41.9385 -1.14441e-05 52.5541 -1.14441e-05C63.1717 -1.14441e-05 70.9891 7.24109 70.9891 17.072Z" fill="#5C5C5C"/>
<path d="M99.0297 25.6324V33.9766H74.8042V0.359901H84.8426V25.6324H99.0297Z" fill="#5C5C5C"/>
<path d="M113.124 17.1202C113.124 22.2035 116.985 25.9918 121.425 25.9918C125.864 25.9918 129.436 22.2035 129.436 17.1202C129.436 12.037 125.864 8.34413 121.425 8.34413C116.937 8.34413 113.124 12.037 113.124 17.1202ZM139.714 17.072C139.714 26.9512 131.897 34.3359 121.279 34.3359C110.664 34.3359 102.845 26.9994 102.845 17.072C102.845 7.19287 110.664 -1.14441e-05 121.279 -1.14441e-05C131.897 -1.14441e-05 139.714 7.24109 139.714 17.072Z" fill="#5C5C5C"/>
<path d="M30.4507 79.8008L30.4022 54.7201L19.7381 76.2998H16.022L5.35682 54.7201V79.8008H0V46.2323H6.75594L17.9043 68.5313L29.0031 46.2323H35.7105V79.8008H30.4507Z" fill="#5C5C5C"/>
<path d="M57.1881 52.274L50.8173 67.1881H63.5578L57.1881 52.274ZM48.6944 72.2232L45.4605 79.8008H39.5254L54.4374 46.2314H60.2764L75.0428 79.8008H68.9632L65.7293 72.2232H48.6944Z" fill="#5C5C5C"/>
<path d="M92.5643 64.5993C97.7766 64.5993 100.768 62.3932 100.768 57.8374C100.768 53.4262 97.7766 51.3156 92.5643 51.3156H84.5529V64.5993H92.5643ZM94.109 69.6343C93.6258 69.6825 93.0951 69.6825 92.5643 69.6825H84.5529V79.8008H78.8584V46.2323H92.5643C101.203 46.2323 106.172 50.4034 106.172 57.6927C106.172 63.0643 103.663 66.8526 99.1757 68.5795L106.752 79.8008H100.286L94.109 69.6343Z" fill="#5C5C5C"/>
<path d="M116.261 74.7658H124.947C129.388 74.7658 132.042 73.0389 132.042 69.8734C132.042 66.9008 129.388 65.1267 124.947 65.1267H116.261V74.7658ZM116.261 60.1389H124.947C128.567 60.1389 130.738 58.4612 130.738 55.6313C130.738 52.8024 128.567 51.2674 124.947 51.2674H116.261V60.1389ZM125.237 46.2323C132.234 46.2323 136.578 49.3968 136.578 54.6237C136.578 58.413 134.31 61.242 130.641 62.1059C135.178 62.8724 137.88 66.0861 137.88 70.5937C137.88 76.348 133.199 79.8008 125.574 79.8008H110.566V46.2323H125.237Z" fill="#5C5C5C"/>
<path d="M147.389 51.3156V60.379H163.893V65.4622H147.389V74.7175H166.403V79.8008H141.695V46.2323H165.823V51.3156H147.389Z" fill="#5C5C5C"/>
<path d="M190.535 74.6693V79.8008H170.218V46.2323H175.912V74.6693H190.535Z" fill="#5C5C5C"/>
<path d="M214.667 74.6693V79.8008H194.35V46.2323H200.045V74.6693H214.667Z" fill="#5C5C5C"/>
<path d="M236.145 52.274L229.775 67.1881H242.515L236.145 52.274ZM227.652 72.2232L224.418 79.8008H218.483L233.395 46.2314H239.234L254 79.8008H247.92L244.687 72.2232H227.652Z" fill="#5C5C5C"/>
</svg>
