<svg width="350" height="66" viewBox="0 0 350 66" fill="none" xmlns="http://www.w3.org/2000/svg">
<path d="M87.9975 26.8025L86.4749 29.9464C85.0513 29.1409 83.035 28.4136 81.8682 28.4136C81.176 28.4136 80.7208 28.6494 80.7208 29.1606C80.7208 31.1841 87.9578 29.9859 87.9578 34.9569C87.9578 37.8843 85.3483 39.2793 82.2434 39.2793C79.8908 39.2793 77.3206 38.454 75.5806 37.0986L77.1226 33.9942C78.5463 35.1928 80.8596 36.0967 82.2832 36.0967C83.1534 36.0967 83.7068 35.8016 83.7068 35.173C83.7068 33.0903 76.4703 34.4066 76.4703 29.5533C76.4703 26.9005 78.7438 25.2112 82.2041 25.2112C84.3198 25.2112 86.4948 25.8398 87.9975 26.8025Z" fill="#333130"/>
<path d="M102.765 32.2851C102.765 34.3678 104.347 35.92 106.166 35.92C107.985 35.92 109.449 34.3678 109.449 32.2851C109.449 30.2023 107.985 28.6892 106.166 28.6892C104.328 28.6892 102.765 30.2023 102.765 32.2851ZM113.66 32.2653C113.66 36.3131 110.457 39.3389 106.107 39.3389C101.757 39.3389 98.5537 36.3329 98.5537 32.2653C98.5537 28.2175 101.757 25.2704 106.107 25.2704C110.457 25.2704 113.66 28.2373 113.66 32.2653Z" fill="#333130"/>
<path d="M135.012 35.7423V39.1611H125.086V25.3874H129.199V35.7423H135.012Z" fill="#333130"/>
<path d="M149.74 32.2851C149.74 34.3678 151.322 35.92 153.141 35.92C154.96 35.92 156.424 34.3678 156.424 32.2851C156.424 30.2023 154.96 28.6892 153.141 28.6892C151.303 28.6892 149.74 30.2023 149.74 32.2851ZM160.635 32.2653C160.635 36.3131 157.432 39.3389 153.082 39.3389C148.732 39.3389 145.529 36.3329 145.529 32.2653C145.529 28.2175 148.732 25.2704 153.082 25.2704C157.432 25.2704 160.635 28.2373 160.635 32.2653Z" fill="#333130"/>
<path d="M185.19 39.1621L185.17 28.8858L180.801 37.7276H179.278L174.908 28.8858V39.1621H172.714V25.4081H175.482L180.05 34.5446L184.597 25.4081H187.345V39.1621H185.19Z" fill="#5C5C5C"/>
<path d="M206.324 27.8835L203.714 33.9943H208.934L206.324 27.8835ZM202.844 36.0573L201.519 39.1621H199.087L205.197 25.4077H207.589L213.639 39.1621H211.148L209.823 36.0573H202.844Z" fill="#5C5C5C"/>
<path d="M230.979 32.9326C233.115 32.9326 234.34 32.0287 234.34 30.1621C234.34 28.3547 233.115 27.4899 230.979 27.4899H227.696V32.9326H230.979ZM231.612 34.9956C231.414 35.0154 231.196 35.0154 230.979 35.0154H227.696V39.1611H225.363V25.4071H230.979C234.518 25.4071 236.555 27.1161 236.555 30.1028C236.555 32.3037 235.527 33.8559 233.688 34.5634L236.792 39.1611H234.143L231.612 34.9956Z" fill="#5C5C5C"/>
<path d="M251.876 37.0981H255.435C257.255 37.0981 258.342 36.3906 258.342 35.0936C258.342 33.8756 257.255 33.1487 255.435 33.1487H251.876V37.0981ZM251.876 31.1051H255.435C256.918 31.1051 257.808 30.4177 257.808 29.2582C257.808 28.0991 256.918 27.4701 255.435 27.4701H251.876V31.1051ZM255.554 25.4071C258.421 25.4071 260.201 26.7037 260.201 28.8453C260.201 30.3979 259.271 31.557 257.768 31.911C259.627 32.2251 260.734 33.5418 260.734 35.3887C260.734 37.7464 258.816 39.1611 255.692 39.1611H249.543V25.4071H255.554Z" fill="#5C5C5C"/>
<path d="M275.72 27.4899V31.2034H282.482V33.2862H275.72V37.0784H283.51V39.1611H273.387V25.4071H283.273V27.4899H275.72Z" fill="#5C5C5C"/>
<path d="M304.567 37.0596V39.1621H296.242V25.4081H298.575V37.0596H304.567Z" fill="#5C5C5C"/>
<path d="M325.009 37.0596V39.1621H316.685V25.4081H319.018V37.0596H325.009Z" fill="#5C5C5C"/>
<path d="M342.685 27.8835L340.075 33.9943H345.295L342.685 27.8835ZM339.205 36.0573L337.88 39.1621H335.448L341.558 25.4077H343.951L350.001 39.1621H347.51L346.185 36.0573H339.205Z" fill="#5C5C5C"/>
<path d="M45.85 18.7601L41.9212 26.4775L41.7378 26.8802C41.7326 26.875 41.7265 26.8734 41.7216 26.8718L38.3397 33.5123L37.0475 36.0515L34.5151 41.0221L30.9194 33.9885C28.6304 32.9777 26.823 31.4288 26.823 28.2909C26.823 27.668 26.9447 27.0967 27.1183 26.5541L23.1363 18.7601H18.7373V49.6797H22.1136V24.1931L31.7531 43.1613C32.7657 43.4633 33.7885 43.6306 34.767 43.6306C35.6231 43.6306 36.3972 43.5419 37.084 43.383L39.8659 37.9274L41.322 35.0722L46.8728 24.1931L46.9178 49.6797H50.2069V18.7601H45.85Z" fill="#5C5C5C"/>
<path d="M41.3211 35.0721L39.865 37.9273C40.2415 38.4619 40.4578 39.1058 40.4529 39.9048C40.4529 41.651 39.2029 42.8838 37.0831 43.383C36.3963 43.5418 35.6222 43.6305 34.7661 43.6305C33.7876 43.6305 32.7648 43.4632 31.7522 43.1612C29.9277 42.619 28.1341 41.6143 26.6845 40.2165L25.4346 42.6976C27.4254 44.5868 30.3079 45.9769 33.3511 46.3091C33.8083 46.3587 34.2683 46.3857 34.7304 46.3857C35.0242 46.3857 35.2936 46.3511 35.5771 46.3333C40.3044 46.0604 43.5058 43.5724 43.5058 39.7714C43.5143 37.5455 42.6331 36.0994 41.3211 35.0721Z" fill="#333130"/>
<path d="M30.9191 33.9892C32.8798 34.856 35.1858 35.3325 37.0468 36.0518L38.3394 33.5126C34.4795 32.0794 29.8744 31.6556 29.8744 28.0521C29.8744 26.0174 31.9207 24.847 35.0426 24.847C36.9807 24.847 39.5394 25.4295 41.7213 26.8725L41.9209 26.4778L42.9173 24.293C40.9046 22.9513 38.0262 22.0538 35.2163 22.0538C31.012 22.0538 28.0037 23.7814 27.118 26.5548C26.9444 27.097 26.8223 27.6683 26.8223 28.2912C26.8223 31.4291 28.6297 32.978 30.9191 33.9892Z" fill="#333130"/>
<path d="M56.2173 11.377L55.7483 11.8379C61.8428 17.4842 65.6641 25.5241 65.6641 34.4369C65.6641 51.4796 51.7124 65.3453 34.5629 65.3453C25.452 65.3453 17.243 61.4305 11.5494 55.2064L11.0796 55.6669C16.8925 62.0115 25.2678 66 34.5629 66C52.0759 66 66.325 51.842 66.325 34.4369C66.325 25.3443 62.4306 17.1427 56.2173 11.377Z" fill="#333130"/>
<path d="M7.99274 50.7889C7.43733 49.9023 6.72816 49.6439 5.9626 50.1188C5.21813 50.5812 5.15525 51.3186 5.71228 52.2056L6.52734 53.5018L8.80861 52.0867L7.99274 50.7889ZM8.31446 50.1341C8.38708 50.2345 8.46457 50.3414 8.53476 50.4534L9.34981 51.7512L10.9016 50.7873L11.2513 51.3469L6.33747 54.3956L5.17107 52.5402C4.40389 51.3186 4.56495 50.2402 5.61045 49.5907C6.42632 49.0851 7.21947 49.1367 7.89293 49.6967L8.84593 47.5156L9.24392 48.1514L8.31446 50.1341Z" fill="#333130"/>
<path d="M2.04478 44.1797L3.88343 43.6967L3.13734 40.8919L3.75198 40.7286L4.49888 43.5334L6.41948 43.029L5.55533 39.7872L6.16267 39.6271L7.19437 43.5048L1.59892 44.9775L0.592773 41.2031L1.20863 41.0418L2.04478 44.1797Z" fill="#333130"/>
<path d="M0.763127 33.1524L3.64686 34.5418L3.74504 31.9651L0.763127 33.1524ZM4.27124 34.8449L5.71027 35.54L5.6839 36.2383L0 33.4439L0.0251536 32.7634L5.90501 30.4109L5.87823 31.1237L4.39052 31.7095L4.27124 34.8449Z" fill="#333130"/>
<path d="M7.21231 23.4331L7.80869 23.6262L6.81269 26.6504L1.31055 24.8583L1.51664 24.2338L6.422 25.8312L7.21231 23.4331Z" fill="#333130"/>
<path d="M9.44838 11.6704L10.8124 12.9876L12.8461 10.9096L13.303 11.3511L11.268 13.4286L12.6891 14.8042L15.0426 12.4022L15.4921 12.8376L12.6782 15.7109L8.53027 11.701L11.2704 8.90428L11.726 9.34374L9.44838 11.6704Z" fill="#333130"/>
<path d="M19.4165 3.98857L19.4777 4.66266C18.8546 4.61831 18.2521 4.79812 17.85 5.02511C17.2021 5.39158 16.9181 5.87377 17.1587 6.29508C17.8943 7.58199 20.3435 5.30813 21.3748 7.12762C21.8539 7.96378 21.4194 8.91888 20.3411 9.52726C19.6075 9.94333 18.7093 10.0344 17.9758 9.85262L17.9401 9.19183C18.6663 9.37809 19.453 9.27286 20.0206 8.95275C20.7476 8.54192 21.0324 7.99402 20.7589 7.51385C20.0128 6.19469 17.5811 8.49717 16.5546 6.70308C16.1039 5.91691 16.5112 5.01624 17.5543 4.4256C18.1377 4.09702 18.84 3.94583 19.4165 3.98857Z" fill="#333130"/>
<path d="M26.6214 1.56757L27.8775 6.53135L27.2364 6.69141L25.9812 1.72722L24.1527 2.1828L23.9961 1.5708L28.303 0.494745L28.458 1.10836L26.6214 1.56757Z" fill="#333130"/>
<path d="M35.1748 0.749093L33.8725 3.65995L36.4694 3.67003L35.1748 0.749093ZM33.5898 4.29131L32.9386 5.74311L32.2363 5.73988L34.856 0.000412941L35.5424 0.00242901L38.104 5.76367L37.3867 5.76085L36.7473 4.30381L33.5898 4.29131Z" fill="#333130"/>
<path d="M44.54 2.09714L43.0839 7.00488L42.4502 6.81862L43.9055 1.91088L42.0977 1.38152L42.2782 0.774758L46.5356 2.02175L46.3555 2.62811L44.54 2.09714Z" fill="#333130"/>
<path d="M51.7624 5.21779L50.7462 6.81392L53.2124 8.36289L52.8733 8.89829L50.4062 7.34933L49.3477 9.01642L52.1982 10.8049L51.8639 11.333L48.4531 9.19341L51.5426 4.33284L54.862 6.41439L54.5212 6.94898L51.7624 5.21779Z" fill="#333130"/>
</svg>
