<svg width="1753" height="141" viewBox="0 0 1753 141" fill="none" xmlns="http://www.w3.org/2000/svg">
<path d="M102.488 25.5765L89.9208 51.5258C78.1705 44.8771 61.5278 38.874 51.8971 38.874C46.1843 38.874 42.4272 40.8207 42.4272 45.0402C42.4272 61.7419 102.16 51.852 102.16 92.8824C102.16 117.045 80.6217 128.559 54.9946 128.559C35.5759 128.559 14.3623 121.747 0 110.559L12.7282 84.9359C24.4785 94.8291 43.5724 102.29 55.3228 102.29C62.5056 102.29 67.0731 99.8539 67.0731 94.666C67.0731 77.4752 7.34355 88.3401 7.34355 48.2813C7.34355 26.3851 26.1093 12.4421 54.6698 12.4421C72.1329 12.4421 90.0849 17.63 102.488 25.5765Z" fill="#5C5C5C"/>
<path d="M187.25 70.3392C187.25 87.5301 200.307 100.342 215.322 100.342C230.334 100.342 242.416 87.5301 242.416 70.3392C242.416 53.1484 230.334 40.6596 215.322 40.6596C200.146 40.6596 187.25 53.1484 187.25 70.3392ZM277.175 70.1762C277.175 103.586 250.737 128.561 214.83 128.561C178.929 128.561 152.488 103.749 152.488 70.1762C152.488 36.7662 178.929 12.4407 214.83 12.4407C250.737 12.4407 277.175 36.9292 277.175 70.1762Z" fill="#5C5C5C"/>
<path d="M409.102 99.1249V127.344H327.175V13.6565H361.123V99.1249H409.102Z" fill="#5C5C5C"/>
<path d="M493.864 70.3392C493.864 87.5301 506.921 100.342 521.936 100.342C536.948 100.342 549.03 87.5301 549.03 70.3392C549.03 53.1484 536.948 40.6596 521.936 40.6596C506.76 40.6596 493.864 53.1484 493.864 70.3392ZM583.788 70.1762C583.788 103.586 557.351 128.561 521.444 128.561C485.543 128.561 459.102 103.749 459.102 70.1762C459.102 36.7662 485.543 12.4407 521.444 12.4407C557.351 12.4407 583.788 36.9292 583.788 70.1762Z" fill="#5C5C5C"/>
<path d="M736.769 127.262L736.605 42.4422L700.54 115.422H687.973L651.905 42.4422V127.262H633.789V13.7375H656.636L694.339 89.1497L731.873 13.7375H754.557V127.262H736.769Z" fill="#5C5C5C"/>
<path d="M864.29 34.1715L842.745 84.6093H885.832L864.29 34.1715ZM835.565 101.637L824.629 127.264H804.557L854.988 13.7361H874.734L924.673 127.264H904.112L893.175 101.637H835.565Z" fill="#5C5C5C"/>
<path d="M1021.02 75.8522C1038.65 75.8522 1048.77 68.3915 1048.77 52.9843C1048.77 38.0663 1038.65 30.9284 1021.02 30.9284H993.93V75.8522H1021.02ZM1026.25 92.88C1024.61 93.0431 1022.82 93.0431 1021.02 93.0431H993.93V127.262H974.672V13.7375H1021.02C1050.24 13.7375 1067.04 27.8436 1067.04 52.4951C1067.04 70.661 1058.56 83.4726 1043.38 89.3127L1069 127.262H1047.14L1026.25 92.88Z" fill="#5C5C5C"/>
<path d="M1138.26 110.234H1167.64C1182.65 110.234 1191.63 104.394 1191.63 93.6886C1191.63 83.6357 1182.65 77.6358 1167.64 77.6358H1138.26V110.234ZM1138.26 60.7678H1167.64C1179.88 60.7678 1187.22 55.0941 1187.22 45.5236C1187.22 35.9565 1179.88 30.7653 1167.64 30.7653H1138.26V60.7678ZM1168.62 13.7375C1192.28 13.7375 1206.97 24.4394 1206.97 42.1161C1206.97 54.931 1199.3 64.4981 1186.89 67.4198C1202.24 70.0121 1211.38 80.8803 1211.38 96.1245C1211.38 115.585 1195.54 127.262 1169.76 127.262H1119V13.7375H1168.62Z" fill="#5C5C5C"/>
<path d="M1280.63 30.9284V61.5797H1336.45V78.7706H1280.63V110.071H1344.93V127.262H1261.38V13.7375H1342.97V30.9284H1280.63Z" fill="#5C5C5C"/>
<path d="M1463.64 109.908V127.262H1394.93V13.7375H1414.19V109.908H1463.64Z" fill="#5C5C5C"/>
<path d="M1582.36 109.908V127.262H1513.64V13.7375H1532.9V109.908H1582.36Z" fill="#5C5C5C"/>
<path d="M1692.09 34.1715L1670.54 84.6093H1713.63L1692.09 34.1715ZM1663.36 101.637L1652.43 127.264H1632.35L1682.79 13.7361H1702.53L1752.47 127.264H1731.91L1720.97 101.637H1663.36Z" fill="#5C5C5C"/>
</svg>
