<svg width="106" height="55" viewBox="0 0 106 55" fill="none" xmlns="http://www.w3.org/2000/svg">
<path d="M7.31886 47.6702L6.4214 49.5172C5.58228 49.044 4.3938 48.6167 3.70606 48.6167C3.2981 48.6167 3.0298 48.7552 3.0298 49.0556C3.0298 50.2443 7.29542 49.5404 7.29542 52.4608C7.29542 54.1805 5.75733 55 3.92726 55C2.54053 55 1.02563 54.5152 0 53.7189L0.908939 51.8952C1.74805 52.5993 3.11158 53.1303 3.95069 53.1303C4.46363 53.1303 4.7898 52.957 4.7898 52.5877C4.7898 51.3642 0.524415 52.1375 0.524415 49.2863C0.524415 47.7278 1.86451 46.7354 3.90406 46.7354C5.15113 46.7354 6.43312 47.1046 7.31886 47.6702Z" fill="#333130"/>
<path d="M11.5693 50.8561C11.5693 52.0797 12.5017 52.9915 13.574 52.9915C14.646 52.9915 15.5088 52.0797 15.5088 50.8561C15.5088 49.6325 14.646 48.7436 13.574 48.7436C12.4902 48.7436 11.5693 49.6325 11.5693 50.8561ZM17.991 50.8445C17.991 53.2225 16.103 55 13.5388 55C10.9751 55 9.08691 53.2341 9.08691 50.8445C9.08691 48.4665 10.9751 46.7351 13.5388 46.7351C16.103 46.7351 17.991 48.4781 17.991 50.8445Z" fill="#333130"/>
<path d="M25.6104 52.9915V55H19.7598V46.9083H22.1841V52.9915H25.6104Z" fill="#333130"/>
<path d="M29.8608 50.8561C29.8608 52.0797 30.7932 52.9915 31.8655 52.9915C32.9375 52.9915 33.8003 52.0797 33.8003 50.8561C33.8003 49.6325 32.9375 48.7436 31.8655 48.7436C30.7817 48.7436 29.8608 49.6325 29.8608 50.8561ZM36.2825 50.8445C36.2825 53.2225 34.3945 55 31.8303 55C29.2666 55 27.3784 53.2341 27.3784 50.8445C27.3784 48.4665 29.2666 46.7351 31.8303 46.7351C34.3945 46.7351 36.2825 48.4781 36.2825 50.8445Z" fill="#333130"/>
<path d="M45.4048 55L45.3931 48.963L42.8176 54.1573H41.9202L39.3445 48.963V55H38.0508V46.9199H39.6824L42.3748 52.2874L45.0552 46.9199H46.6751V55H45.4048Z" fill="#5C5C5C"/>
<path d="M52.709 48.3742L51.1704 51.9641H54.2473L52.709 48.3742ZM50.6577 53.1761L49.8767 55H48.4434L52.0447 46.9197H53.4548L57.021 55H55.5527L54.7717 53.1761H50.6577Z" fill="#5C5C5C"/>
<path d="M62.0991 51.3409C63.3579 51.3409 64.0803 50.8099 64.0803 49.7133C64.0803 48.6515 63.3579 48.1435 62.0991 48.1435H60.1643V51.3409H62.0991ZM62.4722 52.5529C62.3555 52.5645 62.2273 52.5645 62.0991 52.5645H60.1643V55H58.7891V46.9199H62.0991C64.1853 46.9199 65.3855 47.9239 65.3855 49.6785C65.3855 50.9715 64.7795 51.8833 63.6958 52.299L65.5254 55H63.9639L62.4722 52.5529Z" fill="#5C5C5C"/>
<path d="M68.6687 53.7881H70.7664C71.8389 53.7881 72.48 53.3724 72.48 52.6105C72.48 51.8949 71.8389 51.4679 70.7664 51.4679H68.6687V53.7881ZM68.6687 50.2673H70.7664C71.6406 50.2673 72.165 49.8635 72.165 49.1823C72.165 48.5013 71.6406 48.1319 70.7664 48.1319H68.6687V50.2673ZM70.8364 46.9199C72.5264 46.9199 73.5754 47.6816 73.5754 48.9398C73.5754 49.8519 73.0276 50.5328 72.1416 50.7408C73.2373 50.9253 73.8899 51.6988 73.8899 52.7838C73.8899 54.1689 72.7593 55 70.918 55H67.2935V46.9199H70.8364Z" fill="#5C5C5C"/>
<path d="M77.0339 48.1435V50.3251H81.0198V51.5487H77.0339V53.7765H81.6257V55H75.6587V46.9199H81.4858V48.1435H77.0339Z" fill="#5C5C5C"/>
<path d="M88.3008 53.7649V55H83.394V46.9199H84.7693V53.7649H88.3008Z" fill="#5C5C5C"/>
<path d="M94.9756 53.7649V55H90.0688V46.9199H91.4441V53.7649H94.9756Z" fill="#5C5C5C"/>
<path d="M101.009 48.3742L99.4707 51.9641H102.548L101.009 48.3742ZM98.958 53.1761L98.177 55H96.7437L100.345 46.9197H101.755L105.321 55H103.853L103.072 53.1761H98.958Z" fill="#5C5C5C"/>
<path d="M56.2778 12.6011L53.951 17.1565L53.8424 17.3943C53.8393 17.3912 53.8357 17.3902 53.8328 17.3893L51.8299 21.309L51.0646 22.8078L49.5649 25.7419L47.4353 21.5901C46.0797 20.9935 45.0093 20.0791 45.0093 18.2269C45.0093 17.8593 45.0814 17.522 45.1842 17.2017L42.826 12.6011H40.2207V30.8522H42.2202V15.8081L47.9291 27.0046C48.5288 27.1828 49.1345 27.2816 49.7141 27.2816C50.221 27.2816 50.6795 27.2292 51.0863 27.1355L52.7338 23.9151L53.5961 22.2298L56.8835 15.8081L56.9102 30.8522H58.8581V12.6011H56.2778Z" fill="#5C5C5C"/>
<path d="M53.5961 22.2297L52.7337 23.9151C52.9567 24.2306 53.0848 24.6107 53.0819 25.0824C53.0819 26.1131 52.3416 26.8408 51.0862 27.1354C50.6794 27.2292 50.221 27.2815 49.714 27.2815C49.1345 27.2815 48.5287 27.1828 47.929 27.0045C46.8485 26.6845 45.7863 26.0914 44.9278 25.2663L44.1875 26.7309C45.3665 27.846 47.0736 28.6666 48.8759 28.8627C49.1467 28.892 49.4192 28.9079 49.6928 28.9079C49.8668 28.9079 50.0263 28.8874 50.1943 28.877C52.9939 28.7158 54.8899 27.2473 54.8899 25.0036C54.895 23.6897 54.3731 22.8361 53.5961 22.2297Z" fill="#333130"/>
<path d="M47.4355 21.5905C48.5968 22.1021 49.9625 22.3834 51.0646 22.808L51.8301 21.3092C49.5442 20.4632 46.8168 20.2131 46.8168 18.086C46.8168 16.8849 48.0288 16.1941 49.8777 16.1941C51.0254 16.1941 52.5408 16.5379 53.833 17.3897L53.9512 17.1567L54.5413 15.8671C53.3493 15.0751 51.6446 14.5453 49.9805 14.5453C47.4906 14.5453 45.7089 15.5651 45.1844 17.2021C45.0816 17.5222 45.0093 17.8594 45.0093 18.2271C45.0093 20.0793 46.0797 20.9936 47.4355 21.5905Z" fill="#333130"/>
<path d="M62.4177 8.24308L62.1399 8.51509C65.7493 11.848 68.0124 16.5938 68.0124 21.8548C68.0124 31.9147 59.7497 40.0993 49.5932 40.0993C44.1974 40.0993 39.3358 37.7885 35.9638 34.1145L35.6855 34.3863C39.1282 38.1314 44.0883 40.4857 49.5932 40.4857C59.965 40.4857 68.4038 32.1286 68.4038 21.8548C68.4038 16.4876 66.0974 11.6464 62.4177 8.24308Z" fill="#333130"/>
<path d="M33.8574 31.507C33.5285 30.9837 33.1085 30.8311 32.6551 31.1115C32.2142 31.3844 32.177 31.8197 32.5069 32.3432L32.9896 33.1083L34.3406 32.273L33.8574 31.507ZM34.048 31.1205C34.091 31.1798 34.1369 31.2428 34.1784 31.309L34.6611 32.075L35.5802 31.506L35.7873 31.8363L32.8771 33.6359L32.1863 32.5408C31.732 31.8197 31.8274 31.1831 32.4465 30.7997C32.9297 30.5013 33.3995 30.5317 33.7983 30.8623L34.3627 29.5748L34.5984 29.9501L34.048 31.1205Z" fill="#333130"/>
<path d="M30.335 27.6057L31.4239 27.3206L30.9821 25.665L31.3461 25.5686L31.7884 27.2242L32.9259 26.9265L32.4141 25.0129L32.7738 24.9184L33.3848 27.2073L30.071 28.0767L29.4751 25.8487L29.8398 25.7535L30.335 27.6057Z" fill="#333130"/>
<path d="M29.576 21.0966L31.2838 21.9167L31.342 20.3957L29.576 21.0966ZM31.6536 22.0956L32.5058 22.5059L32.4902 22.9181L29.124 21.2687L29.1389 20.8669L32.6212 19.4783L32.6053 19.8991L31.7242 20.2449L31.6536 22.0956Z" fill="#333130"/>
<path d="M33.3956 15.3595L33.7488 15.4735L33.159 17.2586L29.9004 16.2008L30.0224 15.8321L32.9276 16.775L33.3956 15.3595Z" fill="#333130"/>
<path d="M34.7195 8.41625L35.5273 9.19373L36.7318 7.96718L37.0023 8.22777L35.7971 9.45407L36.6388 10.2661L38.0326 8.84818L38.2988 9.1052L36.6323 10.8013L34.1758 8.43433L35.7986 6.78347L36.0684 7.04287L34.7195 8.41625Z" fill="#333130"/>
<path d="M40.6229 3.88184L40.6592 4.27975C40.2901 4.25357 39.9333 4.35971 39.6952 4.49369C39.3115 4.71001 39.1433 4.99464 39.2858 5.24333C39.7214 6.00296 41.1719 4.66075 41.7827 5.73475C42.0664 6.22832 41.8091 6.7921 41.1705 7.15121C40.736 7.3968 40.2041 7.45059 39.7697 7.34326L39.7485 6.95321C40.1786 7.06315 40.6445 7.00104 40.9806 6.81209C41.4112 6.56959 41.5799 6.24617 41.4179 5.96274C40.9761 5.18407 39.5359 6.54317 38.928 5.48416C38.6611 5.0201 38.9023 4.48845 39.52 4.13981C39.8655 3.94586 40.2814 3.85662 40.6229 3.88184Z" fill="#333130"/>
<path d="M44.8902 2.45278L45.6341 5.38278L45.2545 5.47726L44.5111 2.54702L43.4282 2.81593L43.3354 2.45468L45.8862 1.81951L45.978 2.18172L44.8902 2.45278Z" fill="#333130"/>
<path d="M49.9556 1.96965L49.1843 3.68786L50.7223 3.69381L49.9556 1.96965ZM49.0169 4.06054L48.6312 4.9175L48.2153 4.9156L49.7668 1.52772L50.1733 1.52891L51.6904 4.92964L51.2656 4.92797L50.8869 4.06791L49.0169 4.06054Z" fill="#333130"/>
<path d="M55.5021 2.76537L54.6398 5.6623L54.2645 5.55235L55.1263 2.65542L54.0557 2.34296L54.1626 1.9848L56.684 2.72087L56.5773 3.07879L55.5021 2.76537Z" fill="#333130"/>
<path d="M59.7797 4.60742L59.1778 5.54958L60.6385 6.4639L60.4376 6.77993L58.9765 5.86561L58.3496 6.84966L60.0378 7.90534L59.8398 8.21709L57.8198 6.95413L59.6495 4.08505L61.6154 5.31374L61.4136 5.6293L59.7797 4.60742Z" fill="#333130"/>
</svg>
