<svg width="115" height="45" viewBox="0 0 115 45" fill="none" xmlns="http://www.w3.org/2000/svg">
<mask id="mask0_513_10991" style="mask-type:luminance" maskUnits="userSpaceOnUse" x="0" y="0" width="115" height="45">
<path d="M114.89 0.0800781H0.111328V44.9194H114.89V0.0800781Z" fill="white"/>
</mask>
<g mask="url(#mask0_513_10991)">
<path fill-rule="evenodd" clip-rule="evenodd" d="M98.2483 30.4929C93.4267 30.4929 89.4577 29.0472 86.3412 26.1559C83.225 23.2646 81.6684 19.6366 81.6719 15.2719C81.6719 10.8887 83.2215 7.2663 86.3204 4.40458C89.4195 1.54285 93.396 0.115681 98.2483 0.123075C103.135 0.123075 107.132 1.54655 110.242 4.39349C113.351 7.24042 114.9 10.8666 114.89 15.2719C114.89 19.6699 113.333 23.3053 110.221 26.1781C107.108 29.051 103.117 30.4892 98.2483 30.4929ZM98.2483 26.2918C101.867 26.2918 104.821 25.2547 107.111 23.1805C109.401 21.1063 110.542 18.4701 110.535 15.2719C110.535 12.0941 109.387 9.46252 107.09 7.37722C104.794 5.29193 101.846 4.25114 98.2483 4.25484C94.6519 4.25484 91.7159 5.29194 89.4402 7.36614C88.3706 8.3475 87.5131 9.56116 86.9251 10.9248C86.3371 12.2884 86.0326 13.77 86.0326 15.2692C86.0326 16.7683 86.3371 18.25 86.9251 19.6135C87.5131 20.9772 88.3706 22.1908 89.4402 23.1722C91.7142 25.2575 94.6502 26.2973 98.2483 26.2918Z" fill="#E0DFDB"/>
<path fill-rule="evenodd" clip-rule="evenodd" d="M66.748 30.4884V0.126953H71.0564V26.2763H82.7042V30.4884H66.748Z" fill="#E0DFDB"/>
<path fill-rule="evenodd" clip-rule="evenodd" d="M47.0609 26.3175C50.6781 26.3175 53.6315 25.2813 55.921 23.209C58.2104 21.1366 59.3516 18.5013 59.3446 15.3031C59.372 13.7969 59.0761 12.3036 58.4794 10.9361C57.8828 9.56853 57.0008 8.36234 55.9 7.40846C53.6054 5.33057 50.659 4.28977 47.0609 4.28608C43.4627 4.28237 40.5267 5.31947 38.253 7.39738C37.1832 8.37874 36.3252 9.59236 35.7372 10.956C35.1491 12.3196 34.8447 13.8012 34.8447 15.3004C34.8447 16.7996 35.1491 18.2812 35.7372 19.6448C36.3252 21.0084 37.1832 22.2221 38.253 23.2034C40.5215 25.2813 43.4575 26.3175 47.0609 26.3119V26.3175ZM47.0609 30.5186C42.2394 30.5186 38.2705 29.073 35.154 26.1816C32.0374 23.2903 30.4809 19.6642 30.4844 15.3031C30.4844 10.9181 32.0339 7.29569 35.133 4.43582C38.2321 1.57593 42.208 0.148767 47.0609 0.154313C51.9468 0.154313 55.9437 1.57778 59.0515 4.42472C62.1593 7.27166 63.7089 10.8978 63.7001 15.3031C63.7001 19.6975 62.1435 23.3319 59.0305 26.2066C55.9175 29.0813 51.9276 30.5186 47.0609 30.5186Z" fill="#E0DFDB"/>
<path fill-rule="evenodd" clip-rule="evenodd" d="M29.398 11.0605H49.2227L47.2178 14.3687H27.5527L29.398 11.0605Z" fill="#E0DFDB"/>
<path fill-rule="evenodd" clip-rule="evenodd" d="M29.4242 16.3049L46.0556 16.291L44.0428 19.6158L27.5527 19.6131L29.4242 16.3049Z" fill="#E0DFDB"/>
<path fill-rule="evenodd" clip-rule="evenodd" d="M52.2138 11.0619H49.2246L55.8572 0.111328H60.6577L52.2138 11.0619Z" fill="#D9030E"/>
<path fill-rule="evenodd" clip-rule="evenodd" d="M0.111328 25.3642L2.09275 22.2502C3.92591 23.7751 5.96272 25.0031 8.1365 25.8939C10.119 26.7068 12.2246 27.1315 14.3504 27.1473C16.8815 27.1473 18.9388 26.5927 20.5145 25.4447C22.0902 24.2966 22.9828 22.7965 22.9932 21.3711C22.9932 19.7961 21.9463 18.3209 19.6848 17.5361C18.1955 17.0203 16.4758 16.9205 14.9131 16.8428C9.62325 16.4435 1.30228 15.7531 1.30228 8.10792C1.30228 5.77491 2.28645 3.8523 4.25479 2.34009C6.22313 0.82789 8.7778 0.0745625 11.9187 0.0801085C14.2198 0.0811724 16.5049 0.48403 18.6823 1.27249C20.9569 2.09852 23.0965 3.29408 25.0244 4.81638L23.043 7.83061C21.4458 6.44398 19.6469 5.34081 17.7165 4.56403C15.8795 3.84144 13.9358 3.47147 11.9763 3.47147C9.91377 3.47147 8.20804 3.90313 6.85918 4.76646C5.5103 5.62979 4.8411 6.69277 4.85157 7.9554C4.85157 10.2376 6.58172 11.7128 8.6809 12.4754C10.5367 13.152 12.6987 13.2352 13.9735 13.3073C15.6906 13.4154 17.0281 13.5236 17.9678 13.6484C22.0274 14.1336 26.4903 16.1135 26.4903 21.1549C26.4903 23.865 25.3786 26.0954 23.1556 27.8461C20.9325 29.5968 18.0148 30.473 14.4027 30.4749C11.8175 30.503 9.2454 30.0823 6.7885 29.2298C4.3747 28.3452 2.11776 27.0386 0.111328 25.3642Z" fill="#E0DFDB"/>
<path fill-rule="evenodd" clip-rule="evenodd" d="M0.705078 40.7879V41.9671V41.9393V40.9599V40.9433V40.9183V40.9044V40.7879ZM17.9385 41.9671H0.705078V40.7879H17.9385V41.9671ZM17.9385 41.9671V40.7852V40.8129V40.8295V41.8062V41.8228V41.8505V41.9671Z" fill="#D9030E"/>
<path fill-rule="evenodd" clip-rule="evenodd" d="M96.6793 40.7879V41.9671H96.666V41.9393V41.9032V41.8866V41.0126V40.9932V40.9599V40.9433V40.9183V40.9044H96.6793V40.7879ZM114.672 41.9671H96.6793V40.7879H114.672V41.9671ZM114.672 41.9671V40.7852V40.8129V40.8295V40.8822V40.9017V41.734V41.7534V41.8062V41.8228V41.8505V41.9671Z" fill="#D9030E"/>
<path fill-rule="evenodd" clip-rule="evenodd" d="M87.429 41.4482V44.6982H86.3369V37.2804H91.1559C91.7614 37.2445 92.3594 37.4414 92.8385 37.835C93.0423 38.0235 93.2028 38.2585 93.3076 38.5222C93.4133 38.7859 93.4607 39.0715 93.4465 39.3574C93.454 39.8612 93.2818 40.3495 92.9649 40.7245C92.6406 41.1132 92.1956 41.3652 91.7107 41.4344L93.6636 44.6982H92.4751L90.4856 41.4594L87.429 41.4482ZM87.429 40.3612H91.1559C91.4637 40.3838 91.7689 40.2916 92.0193 40.1006C92.1207 40.0083 92.2006 39.8925 92.253 39.7621C92.3054 39.6317 92.3287 39.4904 92.3204 39.3491C92.3287 39.2089 92.3054 39.0688 92.253 38.9397C92.2006 38.8107 92.1207 38.6964 92.0193 38.6059C91.7681 38.4172 91.4628 38.3261 91.1559 38.348H87.429V40.3612ZM77.4272 44.6982L80.9922 37.2749H81.6806L85.2748 44.6982H84.102L83.1909 42.8126H79.4924L78.5867 44.6982H77.4272ZM79.9688 41.8309H82.7066L81.3456 38.9858L79.9688 41.8309ZM76.6184 42.8819C76.2373 43.5328 75.6938 44.0597 75.048 44.4042C74.361 44.7643 73.6026 44.9449 72.8362 44.9312C71.7273 44.9762 70.6425 44.5805 69.7947 43.8219C69.4195 43.4687 69.1191 43.0351 68.9135 42.55C68.7079 42.0649 68.6016 41.5391 68.6016 41.0073C68.6016 40.4755 68.7079 39.9498 68.9135 39.4647C69.1191 38.9795 69.4195 38.546 69.7947 38.1927C70.6425 37.4341 71.7273 37.0385 72.8362 37.0835C73.5574 37.0714 74.2723 37.2277 74.9301 37.5411C75.5305 37.8237 76.051 38.2672 76.4405 38.8278L75.5688 39.4683C75.2752 39.0432 74.8818 38.7066 74.4276 38.4922C73.933 38.2613 73.3976 38.145 72.8571 38.1511C72.0443 38.1197 71.2496 38.4093 70.627 38.9636C70.3499 39.2156 70.1275 39.5281 69.9751 39.8797C69.8225 40.2312 69.7436 40.6135 69.7436 41.0004C69.7436 41.3873 69.8225 41.7696 69.9751 42.1211C70.1275 42.4727 70.3499 42.7852 70.627 43.0372C71.2488 43.5911 72.0426 43.8807 72.8545 43.8496C73.4255 43.8617 73.991 43.7286 74.5035 43.4614C75.01 43.172 75.4415 42.7549 75.7599 42.2469L76.6184 42.8819Z" fill="#E0DFDB"/>
<path fill-rule="evenodd" clip-rule="evenodd" d="M56.625 44.6981L60.1847 37.2637H60.8731L64.4721 44.6981H63.2996L62.3886 42.8125H58.6875L57.7845 44.6981H56.625ZM59.1639 41.8308H61.9044L60.5433 38.9858L59.1639 41.8308Z" fill="#E0DFDB"/>
<path fill-rule="evenodd" clip-rule="evenodd" d="M49.4228 44.6981V38.3202H46.465V37.2887H53.4747V38.3202H50.5169V44.6981H49.4228ZM39.2592 44.6981V37.2637H39.8324L44.2821 42.4796V37.2637H45.3578V44.6981H44.782L40.3324 39.4987V44.6981H39.2592ZM30.8047 44.6981V37.2637H37.3772V38.348H31.8989V40.2003H35.4953V41.2679H31.8989V43.6194H37.6756V44.6981H30.8047ZM22.8057 41.4592V44.6981H21.709V37.2804H26.5251C27.131 37.2438 27.7288 37.4409 28.2082 37.835C28.4123 38.0229 28.5733 38.2577 28.6791 38.5215C28.7848 38.7853 28.8323 39.0711 28.818 39.3573C28.8261 39.861 28.654 40.3494 28.3365 40.7244C28.0128 41.1131 27.5676 41.3651 27.0826 41.4343L29.0379 44.6981H27.847L25.8603 41.4592H22.8057ZM22.8057 40.3722H26.5304C26.839 40.3952 27.1456 40.3029 27.3968 40.1116C27.4977 40.019 27.577 39.903 27.6287 39.7727C27.6805 39.6424 27.7032 39.5012 27.6951 39.3601C27.7036 39.2201 27.6811 39.08 27.6292 38.951C27.5774 38.8219 27.4978 38.7075 27.3968 38.6169C27.1447 38.4277 26.8386 38.3366 26.5304 38.359H22.8057V40.3722Z" fill="#E0DFDB"/>
</g>
</svg>
